 <svg xmlns="http://www.w3.org/2000/svg" xmlns:xlink="http://www.w3.org/1999/xlink" version="1.1" width="3300" 
        height="2163.2564968993474" viewBox="0 0 3300 2163.2564968993474">
			
			<g transform="scale(15) translate(10, 10)">
				<defs id="SvgjsDefs3237"></defs><g id="SvgjsG3238" featureKey="symbolFeature-0" transform="matrix(1.0126066207885742,0,0,1.0126066207885742,50.06997173136801,-19.597363175228715)" fill="#6c63ff"><path xmlns="http://www.w3.org/2000/svg" fill="#6c63ff" d="M97.423,54.297l-2.387-1.518v-6.903l1.857-0.32c0.594-0.102,1.062-0.563,1.174-1.157  s-0.156-1.195-0.673-1.507L58.663,19.561c-0.297-0.18-0.649-0.245-0.99-0.187l-37.099,6.393c-0.397,0.068-0.735,0.298-0.951,0.619  c-0.002,0.003-0.004,0.007-0.006,0.01c-0.046,0.07-0.087,0.145-0.121,0.223c-0.004,0.009-0.008,0.017-0.012,0.026  c-0.035,0.084-0.064,0.172-0.083,0.263c-0.018,0.088-0.024,0.176-0.025,0.264c0,0.009-0.003,0.018-0.003,0.027v10.918  c0,0.073,0.011,0.144,0.021,0.214c-0.096,0.558,0.141,1.145,0.649,1.468l37.124,23.609c0.235,0.146,0.504,0.225,0.777,0.225  c0.082,0,0.164-0.006,0.246-0.021l38.703-6.666c0.587-0.104,1.054-0.557,1.172-1.143C98.183,55.215,97.927,54.617,97.423,54.297z   M22.266,29.825l34.207,21.751v7.959L22.266,37.783V29.825z M59.365,56.602l32.779-5.584v0.838l-32.779,5.58V56.602z M92.145,50.432  l-32.779,5.582v-0.836l32.779-5.583V50.432z M59.365,58.023l32.779-5.58v0.836l-32.779,5.58V58.023z M92.145,49.009L59.365,54.59  v-0.836l32.779-5.582V49.009z M59.365,59.449l32.779-5.582v0.959l-32.779,5.646V59.449z M92.145,47.586l-32.779,5.582v-1.146  l32.779-5.647V47.586z M57.633,22.315l34.94,21.049l-34.324,5.913L24.756,27.981L57.633,22.315z"></path><path xmlns="http://www.w3.org/2000/svg" fill="#6c63ff" d="M94.217,81.123l-2.387-1.518v-6.904l1.856-0.32c0.594-0.102,1.063-0.562,1.175-1.158  c0.111-0.592-0.156-1.193-0.675-1.504L75.344,58.365l0.408,3.623l13.615,8.203l-34.325,5.912l-6.431-4.09l-1.74,0.277l-2.459,0.48  l8.853,5.629v7.961L19.059,64.607v-4.02l-1.984-1.209l-0.908-1.865v7.428c0,0.072,0.012,0.143,0.021,0.213  c-0.095,0.559,0.142,1.145,0.649,1.469L53.961,90.23c0.233,0.148,0.504,0.227,0.776,0.227c0.082,0,0.164-0.008,0.246-0.021  l38.703-6.668c0.588-0.102,1.055-0.555,1.173-1.141C94.976,82.041,94.721,81.443,94.217,81.123z M88.937,81.652l-32.778,5.646  v-1.025l32.778-5.582V81.652z M88.937,80.105l-32.778,5.58V84.85l32.778-5.582V80.105z M88.937,78.68l-32.778,5.582v-0.834  l32.778-5.584V78.68z M88.937,77.258L56.158,82.84v-0.836l32.778-5.582V77.258z M88.937,75.836l-32.778,5.58V80.58l32.778-5.582  V75.836z M88.937,74.412l-32.778,5.58v-1.145l32.778-5.646V74.412z"></path><path xmlns="http://www.w3.org/2000/svg" fill="#6c63ff" d="M79.956,66.004l-2.387-1.518v-4.779l-2.893,0.354v0.654l-32.779,5.58v-0.834l29.006-4.939l-12.168,1.484  l-16.838,2.867v-1.145l15.34-2.643l-3.723-2.295l-12.733,2.193L7.289,39.687l13.333-2.297v-2.935L3.107,37.472  c-0.396,0.068-0.734,0.298-0.951,0.619c-0.002,0.003-0.004,0.007-0.006,0.01c-0.046,0.07-0.087,0.145-0.121,0.223  c-0.004,0.009-0.009,0.018-0.012,0.027c-0.035,0.084-0.064,0.171-0.083,0.262c-0.017,0.088-0.024,0.176-0.025,0.264  c0,0.009-0.003,0.018-0.003,0.027v10.918c0,0.073,0.012,0.144,0.021,0.213c-0.096,0.559,0.142,1.145,0.649,1.467l37.124,23.609  c0.234,0.148,0.504,0.227,0.776,0.227c0.083,0,0.165-0.008,0.247-0.021l38.703-6.668c0.588-0.102,1.055-0.555,1.173-1.143  C80.716,66.92,80.461,66.324,79.956,66.004z M39.006,71.242L4.799,49.488V41.53l34.207,21.751V71.242z M74.677,66.533L41.898,72.18  v-1.025l32.779-5.582V66.533z M74.677,64.986l-32.779,5.58V69.73l32.779-5.582V64.986z M74.677,63.562l-32.779,5.58v-0.836  l32.779-5.582V63.562z M74.677,62.139l-32.779,5.58v-0.836l32.779-5.582V62.139z"></path></g><g id="SvgjsG3239" featureKey="nameFeature-0" transform="matrix(1.1861965656280518,0,0,1.1861965656280518,-4.460098935534502,76.29475823526116)" fill="#6c63ff"><path d="M18.84 20.44 c0 1.56 -0.24 2.92 -0.8 3.92 c1.52 1.44 2.16 3.76 2.16 7 c0 3.44 -0.72 5.88 -2.36 7.16 c-1.56 1.24 -3.76 1.48 -5.96 1.48 l-7.8 0 c-0.2 0 -0.32 -0.16 -0.32 -0.36 l0 -25.68 c0 -0.2 0.12 -0.36 0.32 -0.36 l6.4 0 c2.16 0 4.4 0.16 5.92 1.16 c1.88 1.2 2.44 3.36 2.44 5.68 z M9.04 18.84 l0 3.6 l2.44 0 c1.28 0 1.96 -0.4 1.96 -1.8 s-1.04 -1.8 -2.8 -1.8 l-1.6 0 z M10.56 34.76 c2.2 0 4.28 -0.96 4.28 -3.52 c0 -1.92 -1.36 -3.44 -3.4 -3.44 l-2.4 0 l0 6.96 l1.52 0 z M6.08 16.12 l0 21.32 c0 0.2 0.16 0.28 0.32 0.28 l5.36 0 c3.88 0 6.2 -1.96 6.2 -6.16 c0 -3 -0.68 -6.12 -3.8 -7 c1.84 -0.6 2.32 -2.44 2.32 -4.4 c0 -3.2 -1.8 -4.36 -5.04 -4.36 l-5.04 0 c-0.24 0 -0.32 0.12 -0.32 0.32 z M11.16 37.24 l-4.56 0 l0 -12.32 l5.64 0 c4.12 0 5.16 2.68 5.16 6.64 c0 4.04 -2.2 5.84 -6.24 5.68 z M16 20.16 c0 3.24 -1.36 4.24 -4.64 4.24 l-4.76 0 l0 -8.08 l4.84 0 c2.36 0 4.56 0.44 4.56 3.84 z M35.44 13.239999999999998 c3.44 0 5.84 0.76 7.36 2.4 c1.2 1.32 1.76 3.2 1.76 5.88 l0 10.52 c0 2.76 -0.56 4.68 -1.76 5.96 c-1.56 1.6 -3.92 2.4 -7.36 2.4 c-3.56 0 -5.88 -0.8 -7.4 -2.4 c-1.16 -1.28 -1.8 -3.2 -1.8 -5.96 l0 -10.52 c0 -2.68 0.64 -4.56 1.8 -5.92 c1.56 -1.6 3.92 -2.36 7.4 -2.36 z M39.239999999999995 30.84 l0 -8 c0 -3.52 -1.88 -4.24 -3.6 -4.24 l-0.48 0 c-2.56 0 -3.56 1.64 -3.56 4.24 l0 8 c0 3.52 1.88 4.28 3.56 4.28 l0.48 0 c2.56 0 3.56 -1.72 3.6 -4.28 z M28.759999999999998 21.8 l0 9.92 c0 1.88 0.48 3.44 1.6 4.6 c1.04 1.04 2.64 1.6 4.6 1.6 l1.04 0 c3.76 0 6.2 -2.4 6.2 -6.2 l0 -9.92 c0 -4.08 -2.16 -6.28 -6.2 -6.28 l-1.04 0 c-4.08 0 -6.2 2.2 -6.2 6.28 z M36 37.4 l-1.04 0 c-1.88 0 -3.28 -0.48 -4.28 -1.48 s-1.52 -2.4 -1.52 -4.2 l0 -9.92 c0 -3.8 2.04 -5.8 5.8 -5.8 l1.04 0 c3.8 0 5.68 1.96 5.68 5.8 l0 9.92 c0 1.68 -0.52 3.2 -1.6 4.24 c-1.04 0.88 -2.44 1.44 -4.08 1.44 z M60.239999999999995 13.239999999999998 c3.44 0 5.84 0.76 7.36 2.4 c1.2 1.32 1.76 3.2 1.76 5.88 l0 10.52 c0 2.76 -0.56 4.68 -1.76 5.96 c-1.56 1.6 -3.92 2.4 -7.36 2.4 c-3.56 0 -5.88 -0.8 -7.4 -2.4 c-1.16 -1.28 -1.8 -3.2 -1.8 -5.96 l0 -10.52 c0 -2.68 0.64 -4.56 1.8 -5.92 c1.56 -1.6 3.92 -2.36 7.4 -2.36 z M64.03999999999999 30.84 l0 -8 c0 -3.52 -1.88 -4.24 -3.6 -4.24 l-0.48 0 c-2.56 0 -3.56 1.64 -3.56 4.24 l0 8 c0 3.52 1.88 4.28 3.56 4.28 l0.48 0 c2.56 0 3.56 -1.72 3.6 -4.28 z M53.559999999999995 21.8 l0 9.92 c0 1.88 0.48 3.44 1.6 4.6 c1.04 1.04 2.64 1.6 4.6 1.6 l1.04 0 c3.76 0 6.2 -2.4 6.2 -6.2 l0 -9.92 c0 -4.08 -2.16 -6.28 -6.2 -6.28 l-1.04 0 c-4.08 0 -6.2 2.2 -6.2 6.28 z M60.8 37.4 l-1.04 0 c-1.88 0 -3.28 -0.48 -4.28 -1.48 s-1.52 -2.4 -1.52 -4.2 l0 -9.92 c0 -3.8 2.04 -5.8 5.8 -5.8 l1.04 0 c3.8 0 5.68 1.96 5.68 5.8 l0 9.92 c0 1.68 -0.52 3.2 -1.6 4.24 c-1.04 0.88 -2.44 1.44 -4.08 1.44 z M93.16 13.600000000000001 c0.28 0 0.44 0.32 0.28 0.56 l-6.28 8.68 l6.64 16.72 c0.08 0.2 -0.04 0.44 -0.32 0.44 l-5.4 0 c-0.12 0 -0.24 -0.08 -0.28 -0.24 l-4.16 -11.96 l-2.04 2.8 l0 9.04 c0 0.2 -0.16 0.36 -0.36 0.36 l-4.56 0 c-0.2 0 -0.32 -0.16 -0.32 -0.36 l0 -25.68 c0 -0.2 0.12 -0.36 0.32 -0.36 l4.56 0 c0.2 0 0.36 0.16 0.36 0.36 l0 8.28 l6.28 -8.48 c0.12 -0.16 0.16 -0.16 0.32 -0.16 l4.96 0 z M78.75999999999999 16 l0 21.56 c0 0.28 0.44 0.28 0.44 0 l0 -7.76 l5 -6.64 l5.6 14.48 c0.08 0.2 0.56 0.08 0.44 -0.24 l-5.68 -14.76 l5.2 -6.92 c0.2 -0.2 -0.16 -0.56 -0.4 -0.32 l-10.16 13.6 l0 -13 c0 -0.28 -0.44 -0.28 -0.44 0 z M99.92 40 c-0.2 0 -0.32 -0.16 -0.32 -0.36 l0 -25.68 c0 -0.2 0.12 -0.36 0.32 -0.36 l4.56 0 c0.2 0 0.36 0.16 0.36 0.36 l0 25.68 c0 0.2 -0.16 0.36 -0.36 0.36 l-4.56 0 z M102 16 l0 21.56 c0 0.36 0.44 0.36 0.44 0 l0 -21.56 c0 -0.28 -0.44 -0.28 -0.44 0 z M120.8 13.600000000000001 c4.44 0 7.12 2.52 7.12 7.2 l0 5.04 c0 4.28 -2.64 7.16 -7.12 7.16 l-3.36 0 l0 6.64 c0 0.2 -0.16 0.36 -0.36 0.36 l-4.6 0 c-0.16 0 -0.28 -0.16 -0.28 -0.36 l0 -25.68 c0 -0.2 0.12 -0.36 0.28 -0.36 l8.32 0 z M122.67999999999999 24.64 l0 -2.64 c0 -2.76 -1.28 -3.04 -4.08 -3.04 l-1.16 0 l0 8.8 l1.16 0 c2.2 0 4.08 -0.4 4.08 -3.12 z M125.52 25.560000000000002 l0 -5 c0 -4.4 -3.4 -4.76 -5.24 -4.76 l-5.4 0 c-0.08 0 -0.24 0.12 -0.24 0.24 l0 21.52 c0 0.28 0.48 0.28 0.48 0 l0 -6.8 l4.8 0 c3.52 0 5.6 -1.24 5.6 -5.2 z M115.12 16.32 l5.16 0 c4.44 0 4.72 2.92 4.72 4.24 l0 5 c0 4.08 -2.56 4.64 -5.08 4.64 l-4.8 0 l0 -13.88 z M142.16000000000003 13.600000000000001 c4.44 0 7.12 2.52 7.12 7.2 l0 5.04 c0 4.28 -2.64 7.16 -7.12 7.16 l-3.36 0 l0 6.64 c0 0.2 -0.16 0.36 -0.36 0.36 l-4.6 0 c-0.16 0 -0.28 -0.16 -0.28 -0.36 l0 -25.68 c0 -0.2 0.12 -0.36 0.28 -0.36 l8.32 0 z M144.04000000000002 24.64 l0 -2.64 c0 -2.76 -1.28 -3.04 -4.08 -3.04 l-1.16 0 l0 8.8 l1.16 0 c2.2 0 4.08 -0.4 4.08 -3.12 z M146.88 25.560000000000002 l0 -5 c0 -4.4 -3.4 -4.76 -5.24 -4.76 l-5.4 0 c-0.08 0 -0.24 0.12 -0.24 0.24 l0 21.52 c0 0.28 0.48 0.28 0.48 0 l0 -6.8 l4.8 0 c3.52 0 5.6 -1.24 5.6 -5.2 z M136.48000000000002 16.32 l5.16 0 c4.44 0 4.72 2.92 4.72 4.24 l0 5 c0 4.08 -2.56 4.64 -5.08 4.64 l-4.8 0 l0 -13.88 z M159.92000000000002 13.84 c0.04 -0.12 0.12 -0.24 0.28 -0.24 l4.96 0 c0.16 0 0.24 0.12 0.28 0.24 l6.92 25.72 c0.04 0.24 -0.12 0.44 -0.36 0.44 l-4.56 0 c-0.12 0 -0.24 -0.08 -0.28 -0.24 l-1.56 -5.6 l-5.84 0 l-1.52 5.6 c-0.04 0.16 -0.12 0.24 -0.28 0.24 l-4.6 0 c-0.24 0 -0.4 -0.2 -0.36 -0.44 z M161.04000000000002 29.2 l3.32 0 l-1.72 -6.04 z M167.20000000000002 31.560000000000002 l1.84 6 c0.08 0.24 0.52 0.2 0.4 -0.12 l-6.4 -21.28 c-0.12 -0.52 -0.8 -0.56 -0.92 0 l-6.2 21.28 c-0.12 0.28 0.32 0.4 0.44 0.16 l1.76 -6.04 l9.08 0 z M158.24000000000004 31.04 l4.36 -14.72 l4.44 14.72 l-8.8 0 z"></path></g>
			</g>
		</svg>
	